# xmcd CD database file
#
# Track frame offsets:
#	150
#	16837
#	30241
#	40928
#	56720
#	72479
#	94461
#	115293
#	135615
#	163625
#	184015
#	200202
#	226056
#	257668
#	273498
#	290542
#	307648
#
# Disc length: 4385 seconds
#
# Revision: 1
# Processed by: cddbd v1.4PL0 Copyright (c) Steve Scherf et al.
# Submitted via: CDex 1.50Beta5
#
DISCID=ee111f11
DTITLE=Чиж и Ко - Избранное
DYEAR=1997
DGENRE=Blues
TTITLE0=В старинном городе Обломове
TTITLE1=Вечная молодость
TTITLE2=Мышка (Колыбельная хиппи)
TTITLE3=Русская (Хочу чаю)
TTITLE4=Солдат на привале
TTITLE5=ОК
TTITLE6=О любви
TTITLE7=Вот пуля просвистела
TTITLE8=Полонез
TTITLE9=Эрогенная зона
TTITLE10=Прекрасное воскресенье
TTITLE11=Сен Симилья
TTITLE12=Перекресток
TTITLE13=Поход
TTITLE14=Под звездами Балканскими
TTITLE15=На поле танки грохотали
TTITLE16=Бомбардировщики
EXTD=YEAR: 1997
EXTT0=
EXTT1=
EXTT2=
EXTT3=
EXTT4=
EXTT5=
EXTT6=
EXTT7=
EXTT8=
EXTT9=
EXTT10=
EXTT11=
EXTT12=
EXTT13=
EXTT14=
EXTT15=
EXTT16=
PLAYORDER=
